<svg xmlns="http://www.w3.org/2000/svg" width="100%" height="100%" viewBox="0 0 1000 1000" fill-rule="evenodd" stroke-linejoin="round" stroke-miterlimit="2" xmlns:v="https://vecta.io/nano"><path d="M580.992 185.733c0-45.912-37.275-83.183-83.184-83.183s-83.183 37.271-83.183 83.183v628.534c0 45.912 37.271 83.183 83.183 83.183s83.184-37.271 83.184-83.183V185.733z" fill="#a17f1c" stroke="#000" stroke-width="20.83"/><path d="M805.771 340.479c0-36.866-29.934-66.8-66.8-66.8s-66.796 29.934-66.796 66.8v319.042c0 36.867 29.929 66.8 66.796 66.8s66.8-29.933 66.8-66.8V340.479zm193.062 116.134c0-31.421-25.512-56.93-56.933-56.93s-56.929 25.509-56.929 56.93v86.775c0 31.42 25.512 56.929 56.929 56.929s56.933-25.509 56.933-56.929v-86.775zm-884.975 0c0-31.421-25.508-56.93-56.929-56.93S0 425.192 0 456.613v86.775c0 31.42 25.508 56.929 56.929 56.929s56.929-25.509 56.929-56.929v-86.775zm194.009-113.317c0-38.421-31.192-69.617-69.617-69.617s-69.617 31.196-69.617 69.617v313.408c0 38.421 31.196 69.617 69.617 69.617s69.617-31.196 69.617-69.617V343.296z" fill="#272726"/></svg>