<svg viewBox="0 0 999 816" xmlns="http://www.w3.org/2000/svg" xml:space="preserve" style="fill-rule:evenodd;clip-rule:evenodd;stroke-linejoin:round;stroke-miterlimit:2"><path d="M580.992 93.6c0-45.913-37.275-83.183-83.184-83.183-45.912 0-83.183 37.271-83.183 83.183v628.533c0 45.913 37.271 83.184 83.183 83.184 45.909 0 83.184-37.271 83.184-83.184V93.6Z" style="fill:#a17f1c;stroke:#000;stroke-width:20.83px"/><path d="M805.771 248.346c0-36.867-29.934-66.8-66.8-66.8-36.867 0-66.796 29.933-66.796 66.8v319.042c0 36.866 29.929 66.8 66.796 66.8 36.866 0 66.8-29.934 66.8-66.8V248.346Zm193.062 116.133c0-31.421-25.512-56.929-56.933-56.929-31.417 0-56.929 25.508-56.929 56.929v86.775c0 31.421 25.512 56.929 56.929 56.929 31.421 0 56.933-25.508 56.933-56.929v-86.775Zm-884.975 0c0-31.421-25.508-56.929-56.929-56.929C25.508 307.55 0 333.058 0 364.479v86.775c0 31.421 25.508 56.929 56.929 56.929 31.421 0 56.929-25.508 56.929-56.929v-86.775Zm194.009-113.316c0-38.421-31.192-69.617-69.617-69.617-38.421 0-69.617 31.196-69.617 69.617v313.408c0 38.421 31.196 69.617 69.617 69.617 38.425 0 69.617-31.196 69.617-69.617V251.163Z" style="fill:#272726"/></svg>