<svg xmlns="http://www.w3.org/2000/svg" xml:space="preserve" viewBox="0 0 28.4 28.4">
  <path fill="#008d36" d="M17 .5C7.1-1.4-1.3 7.1.6 16.9c1 5.5 5.5 9.9 11 11 9.8 1.9 18.3-6.6 16.4-16.4-1.1-5.5-5.6-10-11-11z"/>
  <path fill="#fff" d="M7.8 19.8 3.5 8.2H5l3.6 10.2 3.7-10.2h1.4L9.3 19.8H7.8zm16.1-.4c-1.2.4-2 .6-3.2.6-3.7 0-6.2-2.1-6.2-6 0-3.7 2.7-6 6.2-6 1 0 2.3.2 3.2.6l-.1 1.2c-.9-.5-1.9-.7-3-.7-2.9 0-4.9 1.7-4.9 4.8 0 3 1.8 4.8 4.8 4.8.7 0 1.2-.1 1.9-.2v-3.9H20v-1.1h3.9v5.9z" class="st2"/>
</svg>
